<svg t="1766693465841" class="icon" viewBox="0 0 1024 1024" version="1.1" xmlns="http://www.w3.org/2000/svg"
	p-id="30322" data-spm-anchor-id="a313x.search_index.0.i45.68c43a81F6hC22" width="256" height="256">
	<rect x="0" y="0" width="1024" height="1024" fill="#ffe4c4" />
	<path
		d="M333.9 224.3h10.2v-6.1h5.7v6.1H363v4.9h-13.2v6.1c4.6-0.3 8.9-0.6 13-0.9-0.2 1.9-0.4 3.7-0.5 5.3-4.1 0.2-8.2 0.4-12.5 0.7v6.6h-5.7v-6.2c-6.4 0.4-12.9 0.9-19.7 1.4l-0.7-5.6c7.2-0.3 14-0.6 20.3-0.9v-6.4h-16.8v-5c1.9-2.8 3.8-5.8 5.7-9.2h-8.6v-4.9h11.1c1.3-2.6 2.6-5.4 3.8-8.4l5.7 1.9c-1 2.2-2.1 4.3-3.2 6.5h22.1v4.9h-24.7c-1.6 3.1-3.4 6.2-5.2 9.2z m2.4 24.5h56v34.8h-5.9V280h-44.2v3.6h-5.9v-34.8z m50.1 5h-44.2v8h44.2v-8z m-44.2 21h44.2v-8.1h-44.2v8.1z m26-65.9c11-0.1 21.9-1.1 32.7-2.9l1.9 5.4c-10.3 1.1-20 1.9-29 2.4v10.4h30.3v4.9h-11.7v17.2h-5.7v-17.2h-13.2c-1 7.5-3.7 13.7-8 18.6-1.3-1.3-2.8-2.6-4.6-4.1 4.9-5.1 7.4-12.3 7.4-21.7v-13zM417 234.9h32.2c1.1-5.7 1.8-12 2.1-19h-28v-6.4h66.6v6.4h-31.7c-0.4 7-1.1 13.3-2.1 19H496v6.4h-41.5c-4.2 18.5-15.6 32.8-34.3 43-1.2-1.9-2.7-3.8-4.4-5.8 16.3-8.1 26.9-20.5 31.8-37.2H417v-6.4z m42 12.3h6.6v21.6c0 4.3 2 6.5 6 6.5h11.2c3.7 0 5.8-1.6 6.3-4.8 0.4-3.1 0.8-7.2 1-12.1 2.1 0.8 4.4 1.6 6.9 2.4-0.5 5.4-1 9.5-1.5 12.2-0.7 5.5-4.6 8.2-11.6 8.2h-14.2c-7.2 0-10.7-3.8-10.7-11.3v-22.7zM512 206.1h72.4v77.2h-6.2v-3.9h-60v3.9H512v-77.2z m66.2 5.9h-60v61.4h60V212z m-57.3 20.1c7.5-5.4 13.6-11.8 18.5-19.1l5.4 2.5c-1 1.5-2.1 3-3.3 4.4h29v4.8c-4 4.9-9.1 9.3-15.4 13.2 5.8 1.9 12.8 3.5 21.2 4.6-1.3 2.5-2.2 4.5-2.7 6.2-9.7-2.2-17.9-4.7-24.6-7.5-6.7 3-15.6 5.9-26.7 8.8-0.8-1.8-1.7-3.6-2.8-5.3 9.6-2 17.5-4.2 23.8-6.8-3.9-2.7-7.2-5.7-10-9.1-2.6 2.5-5.4 4.9-8.5 7.3-1-1.1-2.3-2.5-3.9-4z m5.9 31.7l1.7-5.7c13.7 1.8 26.8 3.9 39.5 6.3l-2.2 6.2c-12.1-2.5-25.1-4.8-39-6.8z m8.6-10.9l1.6-5.5c8 1.2 16.5 2.6 25.3 4.1l-1.7 5.7c-8.9-1.7-17.3-3.2-25.2-4.3z m27-27.9h-25.3c-0.1 0.1-0.2 0.2-0.2 0.3 3.2 4.1 7.2 7.4 12 10 5.6-3 10.2-6.4 13.5-10.3zM614.9 204.7h7v22.2h29.7v-23.7h7v23.7h22v6.2h-58.7c0 3.5-0.1 8.3-0.2 14.4H662v35.8h-7v-29.5h-33.9c-1.1 11.8-5.7 21.8-13.7 29.9-1.5-2-3.2-3.9-5.2-5.8 5-5.3 8.4-10.6 10.1-16 1.7-4.8 2.5-12.5 2.5-23.1v-34.1z"
		fill="#2c2c2c" p-id="30324"></path>
	<path
		d="M479.2 374.9c-5.5-6.5-8.3-14.4-8.3-23.9 0-9.9 2.8-18 8.4-24.4h2.7c-5.7 6.6-8.6 14.7-8.6 24.3 0 9.1 2.8 17.1 8.5 23.9h-2.7zM522.5 366l-23.4-31.8c-0.5-0.6-0.9-1.3-1.3-1.9l-0.4-0.6h-0.1c0.1 0.5 0.1 1 0.1 1.7V366h-2.7v-39.3h2.1l23.3 31.5c0.5 0.7 1.1 1.5 1.7 2.5h0.1c-0.1-1.3-0.1-2.4-0.1-3.3v-30.7h2.7V366h-2zM547.2 366.6c-4.1 0-7.3-1.3-9.7-4s-3.6-6.2-3.6-10.5c0-4.7 1.2-8.3 3.7-11 2.5-2.6 5.8-3.9 9.9-3.9 4 0 7.2 1.3 9.5 3.9 2.3 2.6 3.5 6.2 3.5 10.9 0 4.4-1.2 7.9-3.6 10.6-2.4 2.7-5.6 4-9.7 4z m0.2-27.1c-3.3 0-6 1.1-7.9 3.3-2 2.2-2.9 5.3-2.9 9.3 0 3.7 1 6.6 2.9 8.8 1.9 2.2 4.5 3.3 7.9 3.3 3.4 0 6-1.1 7.8-3.3s2.7-5.2 2.7-9.1c0-4-0.9-7.1-2.7-9.2-1.9-2-4.5-3.1-7.8-3.1zM588 330.8c-0.6 0-1-0.2-1.5-0.6s-0.6-0.9-0.6-1.5 0.2-1.1 0.6-1.5 0.9-0.6 1.4-0.6c0.6 0 1.1 0.2 1.5 0.5s0.6 0.9 0.6 1.5-0.2 1.1-0.6 1.5-0.8 0.7-1.4 0.7z m-1.2 35.2v-28.1h2.5V366h-2.5zM635.5 366v-16.9c0-3.5-0.6-6-1.7-7.4-1.1-1.4-2.9-2.1-5.2-2.1-2.2 0-4.1 0.9-5.7 2.8-1.6 1.9-2.4 4.3-2.4 7.2V366H618v-17.1c0-6.2-2.4-9.4-7.1-9.4-2.3 0-4.2 1-5.7 2.9s-2.3 4.4-2.3 7.4V366h-2.5v-28.1h2.5v4.7h0.1c1.9-3.6 4.8-5.4 8.6-5.4 2 0 3.8 0.6 5.3 1.8 1.5 1.2 2.4 2.7 2.9 4.7 0.9-2 2.1-3.6 3.8-4.7 1.6-1.1 3.4-1.7 5.3-1.7 6.1 0 9.2 3.8 9.2 11.4V366h-2.6zM665.2 366v-5.6h-0.1c-0.9 1.9-2.2 3.4-3.9 4.6s-3.6 1.7-5.7 1.7c-2.7 0-4.8-0.7-6.3-2.2s-2.3-3.4-2.3-5.7c0-4.9 3.3-7.9 9.8-8.9l8.6-1.3c0-6-2.3-9-6.8-9-3.1 0-6.1 1.2-9 3.7v-3c1-0.8 2.4-1.5 4.2-2.1s3.5-0.9 5-0.9c2.9 0 5.1 0.9 6.7 2.7s2.4 4.4 2.4 7.8V366h-2.6z m-7.7-14c-2.9 0.4-5 1.1-6.2 2s-1.8 2.5-1.8 4.6c0 1.7 0.6 3 1.7 4.1s2.7 1.6 4.6 1.6c2.7 0 4.9-1 6.7-3s2.7-4.6 2.7-7.7v-2.7l-7.7 1.1zM700.6 363.9c0 5.3-1.2 9.1-3.5 11.6s-5.9 3.7-10.8 3.7c-2.7 0-5.5-0.7-8.4-2.1v-2.6c3 1.6 5.8 2.5 8.4 2.5 7.8 0 11.6-4.1 11.6-12.3V361h0.1c-2.2 3.8-5.6 5.7-10.1 5.7-3.5 0-6.3-1.3-8.5-3.8s-3.3-6-3.3-10.5 1.2-8.1 3.5-11 5.5-4.3 9.3-4.3c4.1 0 7.1 1.7 9 5.1h0.1v-4.4h2.5v26.1z m-2.5-15.2c0-2.5-0.8-4.6-2.5-6.4-1.7-1.8-3.8-2.7-6.5-2.7-3.1 0-5.6 1.2-7.5 3.5s-2.8 5.4-2.8 9.2c0 3.8 0.9 6.8 2.6 9s4 3.2 6.8 3.2c3 0 5.4-1 7.2-2.9 1.8-2 2.7-4.3 2.7-7.2v-5.7zM712.2 352c0 3.9 0.9 6.9 2.7 9.1s4.2 3.3 7.3 3.3c3.1 0 6.2-1.2 9.2-3.5v2.7c-2.9 2.1-6.2 3.1-9.7 3.1-3.6 0-6.6-1.3-8.8-3.9s-3.4-6.3-3.4-11c0-4.1 1.2-7.5 3.5-10.4s5.4-4.2 9.1-4.2c3.5 0 6.2 1.2 8 3.7s2.8 5.8 2.8 10v1.1h-20.7z m18.1-2.3c-0.1-3.3-0.9-5.8-2.3-7.6s-3.4-2.7-6-2.7-4.8 0.9-6.6 2.6-2.8 4.3-3.2 7.6h18.1zM745.9 374.9h-2.7c5.7-6.9 8.5-14.9 8.5-23.9 0-9.6-2.9-17.7-8.6-24.3h2.7c5.6 6.4 8.4 14.5 8.4 24.4 0 9.4-2.7 17.4-8.3 23.8z"
		fill="#2c2c2c" p-id="30325"></path>
	<path
		d="M307.6 575.1v-107c0-5.6 4.6-10.2 10.2-10.2h387.1c5.6 0 10.2 4.6 10.2 10.2v107c0 5.6-4.6 10.2-10.2 10.2H317.8c-5.7 0-10.2-4.6-10.2-10.2zM535.8 542h133.1c11 0 20-9 20-20v-0.7c0-11-9-20-20-20H535.8c-11 0-20 9-20 20v0.7c0 11 9 20 20 20z m-140.6-20.4c0 11.3 9.1 20.4 20.4 20.4s20.4-9.1 20.4-20.4c0-11.3-9.1-20.4-20.4-20.4-11.2 0-20.4 9.1-20.4 20.4z m-61.1 0c0 11.3 9.1 20.4 20.4 20.4s20.4-9.1 20.4-20.4c0-11.3-9.1-20.4-20.4-20.4s-20.4 9.1-20.4 20.4zM583.9 697.8h114c6.4 0 12.3 1.9 17.3 5.3v-96.6c0-5.7-4.6-10.4-10.4-10.4H317.9c-5.7 0-10.4 4.6-10.4 10.4v106.6c0 5.7 4.6 10.4 10.4 10.4h235.3c2.7-14.6 15.4-25.7 30.7-25.7z m-229.4-17.6c-11.3 0-20.4-9.1-20.4-20.4s9.1-20.4 20.4-20.4 20.4 9.1 20.4 20.4-9.1 20.4-20.4 20.4z m61.1 0c-11.3 0-20.4-9.1-20.4-20.4s9.1-20.4 20.4-20.4 20.4 9.1 20.4 20.4-9.1 20.4-20.4 20.4z m100.2-20.4c0-11.2 9.2-20.4 20.4-20.4h132.4c11.2 0 20.4 9.2 20.4 20.4s-9.2 20.4-20.4 20.4H536.2c-11.2 0-20.4-9.2-20.4-20.4zM554.1 818.4h-16.6c-11.2 0-20.4-9.2-20.4-20.4s9.2-20.4 20.4-20.4h16.6v-43.3H319.2c-5.7 0-10.4 4.6-10.4 10.4v106.6c0 5.7 4.6 10.4 10.4 10.4h243.2c-5.2-5.6-8.4-13-8.4-21.1l0.1-22.2z m-198.3 0c-11.3 0-20.4-9.1-20.4-20.4s9.1-20.4 20.4-20.4 20.4 9.1 20.4 20.4-9.2 20.4-20.4 20.4z m61.1 0c-11.3 0-20.4-9.1-20.4-20.4s9.1-20.4 20.4-20.4 20.4 9.1 20.4 20.4-9.2 20.4-20.4 20.4z"
		fill="#2c2c2c" p-id="30326"></path>
	<path
		d="M694.5 861.7h-112c-11.2 0-20.4-9.2-20.4-20.4V729.2c0-11.2 9.2-20.4 20.4-20.4h112.1c11.2 0 20.4 9.2 20.4 20.4v112.1c-0.1 11.2-9.3 20.4-20.5 20.4z m-56-140.1c-35.2 0-63.7 28.5-63.7 63.7s28.5 63.7 63.7 63.7 63.7-28.5 63.7-63.7-28.5-63.7-63.7-63.7z"
		fill="#2c2c2c" p-id="30327"></path>
	<path
		d="M668.9 825.3c-1.7 0-3.4-0.6-4.7-1.9l-60.8-60.8c-2.6-2.6-2.6-6.7 0-9.3 2.6-2.6 6.7-2.6 9.3 0l60.8 60.8c2.6 2.6 2.6 6.7 0 9.3-1.2 1.2-2.9 1.9-4.6 1.9z"
		fill="#2c2c2c" p-id="30328"></path>
	<path
		d="M608.1 825.3c-1.7 0-3.4-0.6-4.7-1.9-2.6-2.6-2.6-6.7 0-9.3l60.8-60.8c2.6-2.6 6.7-2.6 9.3 0 2.6 2.6 2.6 6.7 0 9.3l-60.8 60.8c-1.2 1.2-2.9 1.9-4.6 1.9z"
		fill="#2c2c2c" p-id="30329"></path>
</svg>